<svg width="97" height="96" viewBox="0 0 97 96" fill="none" xmlns="http://www.w3.org/2000/svg">
<path d="M48.918 8.05469C52.072 9.20944 53.5348 10.6683 55.8125 13.125C58.5021 15.9378 61.1622 18.6636 64.125 21.1875C68.8535 25.2432 73.3665 29.5236 77.907 33.7866C82.2177 37.8262 86.5872 41.7825 91.0586 45.6445C91.5343 46.0918 92.0099 46.5391 92.5 47C92.5 47.33 92.5 47.66 92.5 48C80.5735 49.3742 80.5735 49.3742 75.8477 46.2422C73.6043 43.9161 71.5528 41.4947 69.5 39C68.2573 37.844 66.9868 36.717 65.6875 35.625C62.0565 32.5096 58.5219 29.2999 55 26.0625C54.4588 25.5651 53.9177 25.0677 53.3601 24.5552C52.0728 23.3708 50.7863 22.1855 49.5 21C46.4979 22.3544 44.3358 23.8868 41.9609 26.1602C41.3023 26.7852 40.6437 27.4102 39.9651 28.0542C38.9305 29.0483 38.9305 29.0483 37.875 30.0625C36.4447 31.4214 35.0138 32.7794 33.582 34.1367C32.8867 34.7972 32.1915 35.4577 31.4751 36.1382C28.1126 39.3079 24.6719 42.386 21.2227 45.4609C20.2972 46.2877 19.3775 47.1225 18.5 48C16.1469 48.0727 13.7917 48.0837 11.4375 48.0625C10.1471 48.0535 8.8568 48.0445 7.52734 48.0352C6.52832 48.0236 5.5293 48.012 4.5 48C8.06463 43.6333 11.685 39.8528 15.9727 36.207C19.3487 33.2588 22.6074 30.1925 25.875 27.125C31.0451 22.2763 36.2505 17.4804 41.5469 12.7695C43.51 11.0829 43.51 11.0829 44.9531 9.19922C46.5 8.00001 46.5 8.00001 48.918 8.05469Z" fill="white"/>
<path d="M12.5 76C36.26 76 60.02 76 84.5 76C84.5 78.64 84.5 81.28 84.5 84C60.74 84 36.98 84 12.5 84C12.5 81.36 12.5 78.72 12.5 76Z" fill="white"/>
<path d="M44.5001 36C47.1401 36 49.7801 36 52.5001 36C52.5414 37.2169 52.5826 38.4338 52.6251 39.6875C53.0323 43.1738 53.7503 44.6843 56.5001 46.875C57.4901 47.5763 58.4801 48.2775 59.5001 49C61.3624 52.7247 61.0714 56.945 60.5001 61C58.828 64.1258 56.7145 66.3928 53.5001 68C49.4085 68.5151 45.2642 68.9437 41.5431 66.9531C38.6442 64.555 36.702 62.6035 36.2267 58.8281C35.9187 51.0112 35.9187 51.0112 38.8751 47.4375C41.5001 45 41.5001 45 43.5001 44C43.9653 42.1047 43.9653 42.1047 44.1251 39.9375C44.2489 38.6381 44.3726 37.3388 44.5001 36ZM46.5001 53C46.1701 54.65 45.8401 56.3 45.5001 58C47.9751 58.495 47.9751 58.495 50.5001 59C50.8301 57.35 51.1601 55.7 51.5001 54C49.8501 53.67 48.2001 53.34 46.5001 53Z" fill="white"/>
<path d="M64.5 64C65.82 64 67.14 64 68.5 64C68.5 65.32 68.5 66.64 68.5 68C67.18 68 65.86 68 64.5 68C64.5 66.68 64.5 65.36 64.5 64Z" fill="white"/>
<path d="M28.5 64C29.82 64 31.14 64 32.5 64C32.5 65.32 32.5 66.64 32.5 68C31.18 68 29.86 68 28.5 68C28.5 66.68 28.5 65.36 28.5 64Z" fill="white"/>
<path d="M68.5 52C69.82 52 71.14 52 72.5 52C72.5 53.32 72.5 54.64 72.5 56C71.18 56 69.86 56 68.5 56C68.5 54.68 68.5 53.36 68.5 52Z" fill="white"/>
<path d="M24.5 52C25.82 52 27.14 52 28.5 52C28.5 53.32 28.5 54.64 28.5 56C27.18 56 25.86 56 24.5 56C24.5 54.68 24.5 53.36 24.5 52Z" fill="white"/>
</svg>
