<svg width="96" height="97" viewBox="0 0 96 97" fill="none" xmlns="http://www.w3.org/2000/svg">
<path d="M33 33.5C39.7408 39.0265 45.8071 45.1945 51.9375 51.375C53.0134 52.456 54.0896 53.5367 55.166 54.6172C57.78 57.2421 60.3909 59.8702 63 62.5C62.0398 63.627 61.0787 64.7531 60.1172 65.8789C59.5821 66.5061 59.0469 67.1333 58.4956 67.7795C55.3852 71.3576 53.9544 72.3769 49.125 73C45.7798 72.9067 44.2118 72.1806 41.75 69.9375C39.3382 67.2927 39.3382 67.2927 36.8125 67.375C33.6793 69.3197 32.3693 72.8028 30.6758 76C27.4855 81.8505 24.419 86.1408 18 88.5C15.0749 88.9789 13.0007 88.8622 10 88.5C8 86.5 8 86.5 7.5 82.9375C7.71314 77.335 10.0726 73.4064 14 69.5C17.3064 67.3919 20.6418 65.6147 24.1719 63.9102C27.0494 62.6621 27.0494 62.6621 29 60.5C28.7963 57.5464 27.9567 56.4528 25.9375 54.25C23.86 51.3013 23.2443 49.2501 23.4023 45.6289C24.5975 41.3718 27.8906 38.4968 31 35.5C31.66 34.84 32.32 34.18 33 33.5ZM16 75.5C15.67 77.15 15.34 78.8 15 80.5C17.475 80.995 17.475 80.995 20 81.5C20.33 79.85 20.66 78.2 21 76.5C19.35 76.17 17.7 75.84 16 75.5Z" fill="white"/>
<path d="M63 10.5C65.0797 12.1579 66.9023 13.7705 68.7734 15.6367C69.3014 16.1538 69.8294 16.6709 70.3734 17.2036C71.4828 18.2971 72.5869 19.396 73.686 20.4998C75.3717 22.1842 77.0845 23.8371 78.8008 25.4903C79.8768 26.5581 80.9511 27.6277 82.0234 28.6992C82.5379 29.1901 83.0523 29.681 83.5824 30.1867C86.0341 32.7038 86.9901 34.0166 87.0632 37.5799C85.8471 40.9199 84.5146 42.5629 81.9648 45.0235C80.7515 46.2126 80.7515 46.2126 79.5137 47.4258C78.2385 48.6382 78.2385 48.6382 76.9375 49.875C76.0835 50.7065 75.2295 51.5379 74.3496 52.3946C72.2439 54.4414 70.1274 56.4757 68 58.5C65.1394 57.1406 63.1407 55.8548 61 53.5C62.1517 51.032 63.0478 49.4522 65 47.5C63.68 46.84 62.36 46.18 61 45.5C61.5312 40.9852 63.3662 38.1534 66 34.5C65.505 34.665 65.01 34.83 64.5 35C60.9656 35.7069 57.6031 35.5601 54 35.5C54.33 32.86 54.66 30.22 55 27.5C50.7076 29.1509 48.1206 32.2376 45 35.5C42.1156 34.207 40.1278 32.8406 38 30.5C39.4184 27.2742 41.1318 25.122 43.625 22.6445C44.3314 21.9401 45.0378 21.2356 45.7656 20.5098C46.8716 19.4221 46.8716 19.4221 48 18.3125C48.7373 17.5758 49.4747 16.8391 50.2344 16.0801C57.6144 8.76072 57.6144 8.76071 63 10.5Z" fill="white"/>
</svg>
