<svg width="96" height="96" viewBox="0 0 96 96" fill="none" xmlns="http://www.w3.org/2000/svg">
<path d="M78 12C78 15 78 15 76.25 17.043C75.5075 17.7507 74.765 18.4583 74 19.1875C73.2575 19.9029 72.515 20.6183 71.75 21.3555C71.1725 21.8982 70.595 22.4408 70 23C71.3593 25.8606 72.6452 27.8593 75 30C78.2152 28.5915 80.3218 26.8965 82.75 24.375C83.3636 23.7433 83.9772 23.1117 84.6094 22.4609C85.0683 21.9788 85.5272 21.4967 86 21C86.99 21.495 86.99 21.495 88 22C88.6211 32.6622 88.6211 32.6622 86.375 37.5C83.5527 40.4708 81.7699 42.2804 78 44C74.6393 44.0711 71.3727 43.9373 68.0234 43.6523C64.7796 43.6805 64.7796 43.6805 62.811 46.5217C62.2134 47.3395 61.6157 48.1574 61 49C62.0451 49.9901 62.0451 49.9901 63.1113 51.0002C65.7009 53.4627 68.2669 55.9486 70.8266 58.4421C71.9359 59.5163 73.0515 60.5841 74.1733 61.6453C75.7887 63.1754 77.3801 64.7273 78.9687 66.2851C79.4718 66.7521 79.9749 67.2191 80.4933 67.7002C83.1849 70.3887 83.9821 71.8519 84.4433 75.6736C84 79 84 79 81.9375 81.9375C78.215 84.5512 76.4809 84.5408 72 84C69.7468 82.363 68.143 80.9703 66.2851 78.9687C65.7845 78.4582 65.2839 77.9477 64.7681 77.4217C63.1823 75.7969 61.6226 74.1494 60.0625 72.5C58.9879 71.3903 57.9118 70.2822 56.834 69.1758C54.2035 66.4683 51.5961 63.7403 49 61C45.0458 64.2612 41.3501 67.5973 37.8086 71.3047C37.0912 72.0523 36.3738 72.8 35.6347 73.5703C34.1563 75.121 32.6877 76.6811 31.2285 78.25C25.7941 83.8654 25.7941 83.8654 21.5898 84.5781C19 84 19 84 17.125 82.875C15.4774 80.129 15.6988 78.156 16 75C17.5185 72.8474 17.5185 72.8474 19.6718 70.8533C20.4727 70.0948 21.2735 69.3364 22.0986 68.555C23.411 67.3502 23.411 67.3502 24.75 66.1211C26.5739 64.378 28.3968 62.6338 30.2187 60.8887C33.1034 58.1588 35.9969 55.4403 38.9101 52.741C41.7194 50.1259 44.4858 47.4711 47.25 44.8086C48.5624 43.625 48.5624 43.625 49.9013 42.4176C53.4509 38.9582 55.7676 36.6362 56.48 31.6209C56.4928 28.1464 56.4928 28.1464 56.1489 24.8468C56 22 56 22 57.625 18.4375C64.1362 11.7549 68.9783 11.4745 78 12Z" fill="#3559C7"/>
<path d="M20.9453 12.1719C25.2104 13.8909 29.8681 16.573 31.8671 20.8594C32.2535 22.1825 32.6362 23.5068 33.0156 24.832C35.0966 29.4152 39.3212 32.6683 43 36C41.6406 38.8606 40.3547 40.8593 38 43C34.6048 41.5546 32.6461 39.724 30.1875 37C27.4233 34.1283 26.3815 33.1004 22.4375 32.0625C17.7983 30.6286 16.0989 28.0413 13.1875 24.289C12 22 12 22 12.1367 19.918C13.1061 17.7642 14.1604 16.373 15.8125 14.6875C16.3139 14.1551 16.8153 13.6227 17.332 13.0742C19 12 19 12 20.9453 12.1719Z" fill="#3559C7"/>
</svg>
