<svg width="96" height="96" viewBox="0 0 96 96" fill="none" xmlns="http://www.w3.org/2000/svg">
<path d="M8 12C34.4 12 60.8 12 88 12C88 14.64 88 17.28 88 20C84.04 20 80.08 20 76 20C76 21.32 76 22.64 76 24C79.96 24 83.92 24 88 24C88 26.64 88 29.28 88 32C84.04 32 80.08 32 76 32C76 33.32 76 34.64 76 36C79.96 36 83.92 36 88 36C88 38.64 88 41.28 88 44C84.04 44 80.08 44 76 44C76.0157 45.1051 76.0314 46.2103 76.0476 47.3489C76.1019 51.4469 76.1363 55.545 76.1648 59.6433C76.1799 61.4175 76.2004 63.1916 76.2263 64.9656C76.2627 67.5149 76.2797 70.0637 76.293 72.6133C76.3085 73.4071 76.3239 74.201 76.3399 75.0189C76.3416 80.5199 76.3416 80.5199 74.7839 82.7093C72.4415 84.4041 70.9958 84.3803 68.1172 84.3882C67.1261 84.3976 66.1349 84.4071 65.1138 84.4168C64.045 84.4108 62.9762 84.4047 61.875 84.3984C60.7766 84.4013 59.6781 84.4042 58.5464 84.4071C56.223 84.4092 53.8995 84.4036 51.5762 84.3911C48.0139 84.3751 44.4528 84.391 40.8906 84.4102C38.6354 84.4082 36.3802 84.4043 34.125 84.3984C33.0562 84.4045 31.9874 84.4106 30.8862 84.4168C29.3995 84.4027 29.3995 84.4027 27.8828 84.3882C27.0103 84.3858 26.1377 84.3834 25.2388 84.381C22.4944 83.914 21.6038 83.2543 20 81C19.7384 78.1292 19.6511 75.4801 19.707 72.6133C19.7113 71.7963 19.7155 70.9793 19.7199 70.1375C19.7367 67.5288 19.7743 64.9209 19.8125 62.3125C19.8275 60.5436 19.8412 58.7747 19.8535 57.0059C19.8866 52.6703 19.9384 48.3353 20 44C16.04 44 12.08 44 8 44C8 41.36 8 38.72 8 36C11.96 36 15.92 36 20 36C20 34.68 20 33.36 20 32C16.04 32 12.08 32 8 32C8 29.36 8 26.72 8 24C11.96 24 15.92 24 20 24C20 22.68 20 21.36 20 20C16.04 20 12.08 20 8 20C8 17.36 8 14.72 8 12ZM28 20C28 21.32 28 22.64 28 24C41.2 24 54.4 24 68 24C68 22.68 68 21.36 68 20C54.8 20 41.6 20 28 20ZM28 32C28 33.32 28 34.64 28 36C41.2 36 54.4 36 68 36C68 34.68 68 33.36 68 32C54.8 32 41.6 32 28 32ZM28 44C28 45.32 28 46.64 28 48C41.2 48 54.4 48 68 48C68 46.68 68 45.36 68 44C54.8 44 41.6 44 28 44ZM37 60C41.8467 65.6937 41.8467 65.6937 47 71C50.4253 69.5265 52.6496 67.5909 55.25 64.9375C55.9564 64.2246 56.6628 63.5118 57.3906 62.7773C59.1119 61.2761 59.1119 61.2761 59 60C51.74 60 44.48 60 37 60Z" fill="#3559C7"/>
<path d="M84 75.875C87 76 87 76 88 77C88.125 80 88.125 80 88 83C87 84 87 84 84 84.125C81 84 81 84 80 83C79.875 80 79.875 80 80 77C81 76 81 76 84 75.875Z" fill="#3559C7"/>
<path d="M84 63.875C87 64 87 64 88 65C88.125 68 88.125 68 88 71C87 72 87 72 84 72.125C81 72 81 72 80 71C79.875 68 79.875 68 80 65C81 64 81 64 84 63.875Z" fill="#3559C7"/>
<path d="M84 51.875C87 52 87 52 88 53C88.125 56 88.125 56 88 59C87 60 87 60 84 60.125C81 60 81 60 80 59C79.875 56 79.875 56 80 53C81 52 81 52 84 51.875Z" fill="#3559C7"/>
</svg>
