<svg width="97" height="97" viewBox="0 0 97 97" fill="none" xmlns="http://www.w3.org/2000/svg">
<g clip-path="url(#clip0_20_873)">
<path d="M70.9375 57.5C73.5 59.5 73.5 59.5 76.5 62.5C76.5 68.44 76.5 74.38 76.5 80.5C58.02 80.5 39.54 80.5 20.5 80.5C20.5 62.5 20.5 62.5 23.25 58.625C25.2148 57.4687 25.2148 57.4687 27.5 56.5C28.3263 56.0978 29.1526 55.6956 30.0039 55.2812C42.7356 50.0398 59.0178 50.5649 70.9375 57.5Z" fill="#3559C7"/>
<path d="M53.5001 16.5C56.7864 17.9378 59.2025 19.7429 61.5001 22.5C63.2257 27.677 63.3734 33.2681 61.3751 38.375C58.352 41.8012 55.7253 44.1791 51.0626 44.8516C46.1057 45.0138 42.4076 44.8329 38.5001 41.5C37.7369 40.8606 36.9738 40.2213 36.1876 39.5625C33.5029 34.6903 33.5259 29.9223 34.5001 24.5C39.0349 16.3567 44.7467 15.778 53.5001 16.5Z" fill="#3559C7"/>
<path d="M83.4999 28.5C86.6249 30.375 86.6249 30.375 88.4999 33.5C89.4887 38.5262 89.2768 42.2052 86.6249 46.625C82.205 49.2769 78.5261 49.4888 73.4999 48.5C70.3749 46.625 70.3749 46.625 68.4999 43.5C67.5111 38.4738 67.723 34.7949 70.3749 30.375C74.7948 27.7231 78.4737 27.5113 83.4999 28.5Z" fill="#3559C7"/>
<path d="M23.4999 28.5C26.6249 30.375 26.6249 30.375 28.4999 33.5C29.4887 38.5262 29.2768 42.2052 26.6249 46.625C22.205 49.2769 18.5261 49.4888 13.4999 48.5C10.3749 46.625 10.3749 46.625 8.4999 43.5C7.51113 38.4738 7.72298 34.7949 10.3749 30.375C14.7948 27.7231 18.4737 27.5113 23.4999 28.5Z" fill="#3559C7"/>
<path d="M16.4999 57.5C16.0256 58.6962 15.5512 59.8925 15.0624 61.125C12.9226 67.4335 12.7726 73.8909 12.4999 80.5C8.53994 80.5 4.57994 80.5 0.499942 80.5C0.364763 77.7483 0.26579 75.0033 0.187442 72.25C0.145548 71.4727 0.103653 70.6954 0.0604891 69.8945C-0.0633927 64.0969 -0.0633926 64.0969 2.79682 61.0664C11.6458 55.9386 11.6458 55.9386 16.4999 57.5Z" fill="#3559C7"/>
<path d="M80.5 56.5C86.7197 56.8887 92.006 59.006 96.5 63.5C96.5733 66.3627 96.5924 69.2007 96.5625 72.0625C96.558 72.8688 96.5535 73.6751 96.5488 74.5059C96.537 76.5039 96.5191 78.502 96.5 80.5C92.54 80.5 88.58 80.5 84.5 80.5C84.4626 79.6054 84.4252 78.7108 84.3867 77.7891C83.9781 70.2742 83.0931 63.578 80.5 56.5Z" fill="#3559C7"/>
</g>
<defs>
<clipPath id="clip0_20_873">
<rect width="96" height="96" fill="white" transform="translate(0.5 0.5)"/>
</clipPath>
</defs>
</svg>
