<svg width="97" height="96" viewBox="0 0 97 96" fill="none" xmlns="http://www.w3.org/2000/svg">
<path d="M56.5 6C57.9407 6.57624 59.3828 7.14876 60.8264 7.71753C62.3036 8.3332 63.7794 8.95212 65.2539 9.57422C65.9525 9.86607 66.6512 10.1579 67.371 10.4586C69.9363 11.5314 72.4993 12.6098 75.0625 13.6875C80.8169 16.1006 86.5713 18.5138 92.5 21C92.5 44.43 92.5 67.86 92.5 92C63.46 92 34.42 92 4.5 92C4.5 68.57 4.5 45.14 4.5 21C11.4094 17.9681 18.3188 14.9363 25.4375 11.8125C27.6005 10.8455 29.7634 9.87842 31.9919 8.88208C33.7319 8.13394 35.4728 7.38794 37.2148 6.64453C38.0972 6.24053 38.9797 5.83653 39.8888 5.42029C46.4777 2.65594 50.0993 3.02015 56.5 6ZM22.5 33.5C21.6299 34.4062 20.7598 35.3124 19.8633 36.2461C17.723 38.4804 15.6036 40.7312 13.5 43C15.0519 46.3276 16.8062 48.4858 19.5 51C22.8659 49.5575 25.0105 47.6674 27.5 45C30.952 46.4772 33.1496 48.4379 35.75 51.125C36.4564 51.8495 37.1628 52.5739 37.8906 53.3203C38.4217 53.8746 38.9528 54.4289 39.5 55C37.6365 59.9181 33.463 63.0382 29.668 66.4902C26.3995 69.5852 26.3995 69.5852 25.0586 73.7656C25.362 76.0368 25.362 76.0368 26.6875 77.8125C29.1363 79.4169 30.6104 79.2942 33.5 79C35.4298 77.7531 35.4298 77.7531 37.0508 75.9375C37.6663 75.3059 38.2818 74.6742 38.916 74.0234C39.5419 73.3557 40.1677 72.688 40.8125 72C41.4577 71.3323 42.1029 70.6645 42.7676 69.9766C44.3569 68.3284 45.9334 66.6697 47.5 65C50.3146 66.2721 52.2589 67.5437 54.3398 69.8203C54.8458 70.3553 55.3518 70.8902 55.873 71.4414C56.9181 72.5661 57.9572 73.6963 58.9902 74.832C62.0852 78.1005 62.0852 78.1005 66.2656 79.4414C68.5368 79.138 68.5368 79.138 70.3125 77.8125C71.9169 75.3637 71.7942 73.8896 71.5 71C70.2531 69.0702 70.2531 69.0702 68.4375 67.4492C67.8059 66.8337 67.1742 66.2182 66.5234 65.584C65.8557 64.9581 65.188 64.3323 64.5 63.6875C63.4984 62.7197 63.4984 62.7197 62.4766 61.7324C60.8284 60.1431 59.1697 58.5666 57.5 57C59.375 53.125 59.375 53.125 60.5 52C62.2076 51.9202 63.9162 51.8614 65.625 51.8125C70.872 51.4026 73.5246 50.1077 77.2578 46.4727C79.6762 43.6055 79.6094 41.5345 79.5625 37.875C79.5535 36.9649 79.5445 36.0548 79.5352 35.1172C79.5236 34.4185 79.512 33.7198 79.5 33C78.7942 33.6149 78.7942 33.6149 78.0742 34.2422C77.4516 34.781 76.829 35.3198 76.1875 35.875C75.5726 36.4087 74.9577 36.9423 74.3242 37.4922C72.5 39 72.5 39 69.5 41C67.52 38.69 65.54 36.38 63.5 34C64.3662 33.1512 64.3662 33.1512 65.25 32.2852C65.9925 31.5517 66.735 30.8182 67.5 30.0625C68.2425 29.3316 68.985 28.6007 69.75 27.8477C71.6146 26.3031 71.6146 26.3031 71.5 25C65.1795 24.2794 65.1795 24.2794 59.3125 26.2656C54.8699 30.0622 54.8699 30.0622 53.2891 35.4961C53.1798 37.4542 53.0757 39.4125 52.9766 41.3711C52.449 44.2816 51.7828 45.1994 49.5 47C46.048 45.5228 43.8504 43.5621 41.25 40.875C40.5436 40.1505 39.8372 39.4261 39.1094 38.6797C38.5783 38.1254 38.0472 37.5711 37.5 37C39.0519 33.6724 40.8062 31.5142 43.5 29C42.2799 26.3094 42.2799 26.3094 40.5 24C31.7482 22.3292 28.143 27.4063 22.5 33.5Z" fill="#3559C7"/>
</svg>
