<svg width="97" height="97" viewBox="0 0 97 97" fill="none" xmlns="http://www.w3.org/2000/svg">
<path d="M15.6562 12.3706C16.9743 12.3675 18.2924 12.3643 19.6504 12.3611C21.1003 12.3628 22.5501 12.3649 24 12.3672C25.4759 12.3665 26.9518 12.3655 28.4277 12.3643C31.5247 12.3628 34.6217 12.365 37.7188 12.3696C41.6971 12.3753 45.6754 12.372 49.6537 12.3661C52.7025 12.3624 55.7513 12.3636 58.8 12.3662C60.2673 12.3669 61.7346 12.366 63.2019 12.3637C65.2492 12.3612 67.2965 12.3657 69.3438 12.3706C71.0946 12.3718 71.0946 12.3718 72.8809 12.373C75.5 12.5 75.5 12.5 76.5 13.5C76.5992 15.1226 76.6308 16.7494 76.6328 18.375C76.6341 19.3598 76.6354 20.3447 76.6367 21.3594C76.6329 22.3958 76.629 23.4322 76.625 24.5C76.6289 25.5364 76.6327 26.5728 76.6367 27.6406C76.6354 28.6255 76.6341 29.6103 76.6328 30.625C76.6317 31.5351 76.6306 32.4452 76.6294 33.3828C76.5 35.5 76.5 35.5 75.5 36.5C73.4499 36.5994 71.3963 36.628 69.3438 36.6294C68.0257 36.6325 66.7076 36.6357 65.3496 36.6389C63.8997 36.6372 62.4499 36.6351 61 36.6328C59.5241 36.6335 58.0482 36.6345 56.5723 36.6357C53.4753 36.6372 50.3783 36.635 47.2812 36.6304C43.3029 36.6247 39.3246 36.628 35.3463 36.6339C32.2975 36.6375 29.2487 36.6364 26.2 36.6338C24.7327 36.6331 23.2654 36.634 21.7981 36.6363C19.7508 36.6388 17.7035 36.6343 15.6562 36.6294C13.9054 36.6282 13.9054 36.6282 12.1191 36.627C9.5 36.5 9.5 36.5 8.5 35.5C8.40083 33.8774 8.3692 32.2506 8.36719 30.625C8.3659 29.6402 8.36461 28.6553 8.36328 27.6406C8.36715 26.6042 8.37102 25.5678 8.375 24.5C8.3692 22.9454 8.3692 22.9454 8.36328 21.3594C8.36457 20.3745 8.36586 19.3897 8.36719 18.375C8.36832 17.4649 8.36944 16.5548 8.37061 15.6172C8.64248 11.1687 11.9042 12.3732 15.6562 12.3706Z" fill="white"/>
<path d="M80.5001 20.5C82.4801 20.83 84.4601 21.16 86.5001 21.5C89.6072 26.1606 88.8687 30.9556 88.8751 36.4375C88.8996 37.5351 88.9241 38.6328 88.9494 39.7637C88.9552 41.3483 88.9552 41.3483 88.9611 42.9648C88.9693 43.9303 88.9775 44.8957 88.986 45.8904C88.5001 48.5 88.5001 48.5 86.9879 50.8215C83.4905 53.1812 80.303 53.0002 76.2345 52.8906C75.4411 52.885 74.6477 52.8793 73.8303 52.8735C71.303 52.8511 68.7771 52.8009 66.2501 52.75C64.534 52.7299 62.8179 52.7117 61.1017 52.6953C56.9006 52.6513 52.7006 52.5823 48.5001 52.5C48.5001 55.14 48.5001 57.78 48.5001 60.5C49.8201 60.83 51.1401 61.16 52.5001 61.5C52.529 65.1458 52.5469 68.7916 52.5626 72.4375C52.571 73.4784 52.5794 74.5193 52.588 75.5918C52.5929 77.0758 52.5929 77.0758 52.5978 78.5898C52.6057 79.9645 52.6057 79.9645 52.6137 81.3669C52.5001 83.5 52.5001 83.5 51.5001 84.5C49.1685 84.5991 46.8339 84.6297 44.5001 84.625C43.2214 84.6276 41.9426 84.6302 40.6251 84.6328C37.5001 84.5 37.5001 84.5 36.5001 83.5C36.4131 81.8653 36.3931 80.2269 36.4025 78.5898C36.4057 77.6005 36.4089 76.6111 36.4123 75.5918C36.4206 74.5509 36.429 73.51 36.4376 72.4375C36.4422 71.3927 36.4467 70.3479 36.4513 69.2715C36.4632 66.6809 36.4796 64.0905 36.5001 61.5C38.4801 61.005 38.4801 61.005 40.5001 60.5C40.4537 59.6802 40.4073 58.8603 40.3595 58.0156C40.3234 56.938 40.2873 55.8603 40.2501 54.75C40.2037 53.6827 40.1573 52.6153 40.1095 51.5156C40.5001 48.5 40.5001 48.5 42.008 46.3359C45.4846 43.7748 48.6199 43.9978 52.7658 44.1094C53.5592 44.115 54.3526 44.1207 55.17 44.1265C57.6973 44.1489 60.2232 44.1991 62.7501 44.25C64.4663 44.2701 66.1824 44.2883 67.8986 44.3047C72.1001 44.3453 76.2985 44.4236 80.5001 44.5C80.5001 36.58 80.5001 28.66 80.5001 20.5Z" fill="white"/>
</svg>
