<svg width="97" height="97" viewBox="0 0 97 97" fill="none" xmlns="http://www.w3.org/2000/svg">
<path d="M26.0312 7.98242C27.1392 7.96981 28.2471 7.9572 29.3887 7.94421C30.5804 7.95231 31.7721 7.96041 33 7.96875C34.2278 7.96492 35.4557 7.9611 36.7207 7.95715C39.3164 7.95443 41.9122 7.96181 44.5078 7.97852C48.485 7.99992 52.4604 7.97872 56.4375 7.95312C58.9583 7.95577 61.4792 7.96089 64 7.96875C65.1917 7.96065 66.3835 7.95256 67.6113 7.94421C69.2733 7.96313 69.2733 7.96313 70.9688 7.98242C71.9426 7.9856 72.9165 7.98879 73.9199 7.99207C77.3485 8.66704 78.4921 9.65257 80.5 12.5C80.981 15.5626 80.981 15.5626 80.9541 19.1963C80.9547 19.8601 80.9553 20.5239 80.9559 21.2079C80.9531 23.3943 80.922 25.5794 80.8906 27.7656C80.8832 29.2845 80.8775 30.8033 80.8735 32.3222C80.8582 36.314 80.8189 40.3053 80.7747 44.2969C80.7337 48.3723 80.7155 52.4478 80.6953 56.5234C80.6525 64.5159 80.5842 72.5079 80.5 80.5C83.14 80.5 85.78 80.5 88.5 80.5C88.5 83.14 88.5 85.78 88.5 88.5C62.1 88.5 35.7 88.5 8.5 88.5C8.5 85.86 8.5 83.22 8.5 80.5C11.14 80.5 13.78 80.5 16.5 80.5C16.4911 79.657 16.4822 78.8139 16.4731 77.9454C16.3929 70 16.332 62.0547 16.2928 54.109C16.2719 50.024 16.2436 45.9393 16.1982 41.8545C16.1548 37.9123 16.1309 33.9703 16.1205 30.0279C16.1131 28.524 16.0987 27.02 16.0771 25.5162C16.048 23.4092 16.044 21.3035 16.0459 19.1963C16.037 17.9972 16.0281 16.798 16.019 15.5626C16.5 12.5 16.5 12.5 18.1827 10.1138C21.0236 8.13537 22.5878 7.99367 26.0312 7.98242ZM57.5 20.5C58.0745 24.4308 58.0745 24.4308 60.5 27.5C63.7971 27.1703 65.1227 26.8773 67.5 24.5C67.5 23.18 67.5 21.86 67.5 20.5C64.2 20.5 60.9 20.5 57.5 20.5ZM28.5 24.5C28.5 27.14 28.5 29.78 28.5 32.5C32.46 32.5 36.42 32.5 40.5 32.5C40.5 29.86 40.5 27.22 40.5 24.5C36.54 24.5 32.58 24.5 28.5 24.5ZM56.5 40.5C56.5 43.14 56.5 45.78 56.5 48.5C60.46 48.5 64.42 48.5 68.5 48.5C68.5 45.86 68.5 43.22 68.5 40.5C64.54 40.5 60.58 40.5 56.5 40.5ZM29.5 48.5C30.0745 52.4308 30.0745 52.4308 32.5 55.5C35.7971 55.1703 37.1227 54.8773 39.5 52.5C39.5 51.18 39.5 49.86 39.5 48.5C36.2 48.5 32.9 48.5 29.5 48.5ZM57.5 64.5C58.0745 68.4308 58.0745 68.4308 60.5 71.5C63.7971 71.1703 65.1227 70.8773 67.5 68.5C67.5 67.18 67.5 65.86 67.5 64.5C64.2 64.5 60.9 64.5 57.5 64.5ZM28.5 68.5C28.5 71.14 28.5 73.78 28.5 76.5C32.46 76.5 36.42 76.5 40.5 76.5C40.5 73.86 40.5 71.22 40.5 68.5C36.54 68.5 32.58 68.5 28.5 68.5Z" fill="white"/>
</svg>
